<svg width="254" height="212" viewBox="0 0 254 212" fill="none" xmlns="http://www.w3.org/2000/svg">
<path d="M140.473 201.958C196.38 201.958 241.701 156.749 241.701 100.979C241.701 45.2084 196.38 0 140.473 0C84.5653 0 39.2442 45.2096 39.2442 100.98C39.2442 156.75 84.5653 201.96 140.473 201.96" fill="#0A6EFA"/>
<path d="M140.473 188.946C189.176 188.946 228.658 149.563 228.658 100.979C228.658 52.3946 189.176 13.012 140.473 13.012C91.77 13.012 52.288 52.3959 52.288 100.98C52.288 149.564 91.77 188.948 140.473 188.948" fill="#003FC4"/>
<path d="M140.041 168.743C177.897 168.743 208.584 138.056 208.584 100.2C208.584 62.3448 177.897 31.6572 140.041 31.6572C102.186 31.6572 71.4983 62.3448 71.4983 100.2C71.4983 138.056 102.186 168.743 140.041 168.743Z" fill="#1AA0FF"/>
<path fill-rule="evenodd" clip-rule="evenodd" d="M106.243 48.2578C102.931 51.0916 97.7575 52.3737 95.7437 50.4297C93.7298 48.4845 96.0967 47.9526 98.1632 45.9449C100.475 44.506 112.929 34.0153 132.9 32.0652C134.849 51.2019 109.555 45.4228 106.244 48.2578" fill="#34C26B"/>
<path fill-rule="evenodd" clip-rule="evenodd" d="M76.2061 75.0454C79.4959 67.2757 83.5775 60.63 88.452 55.1083C92.1536 55.237 92.8608 57.3427 90.5737 61.4255C90.2624 63.8609 91.515 64.5154 94.3317 63.3915C98.5554 61.7049 101.997 51.7964 110.361 55.7983C114.554 57.8048 119.51 55.6096 125.095 53.4131C130.649 51.2289 136.828 49.046 143.501 50.9936C156.887 54.9011 152.627 64.9787 149.111 64.8562C142.436 64.6233 139.97 68.4107 137.639 72.1981C134.694 76.9844 131.963 81.7695 121.229 78.4442C102.001 72.4886 100.243 97.5772 105.11 105.766C109.978 113.954 108.87 127.013 96.734 136.043C84.5985 145.073 90.1079 146.882 84.4318 140.208C81.8823 137.211 77.6721 130.266 75.1827 123.075C72.1785 114.394 70.2971 103.316 71.8684 91.8251C79.2066 74.9559 88.4202 82.4755 87.6002 75.6006C87.0535 71.0165 83.2563 70.8314 76.2074 75.0454" fill="#85FF97"/>
<path fill-rule="evenodd" clip-rule="evenodd" d="M201.208 69.3974C191.474 63.128 176.931 66.9558 176.525 84.4672C176.12 101.979 182.216 104.55 189.608 106.517C197 108.485 197 117.737 191.652 125.557C186.303 133.377 177.828 129.513 168.599 138.844C162.446 145.065 160.786 153.697 163.62 164.739C176.974 159.91 188.248 151.278 197.44 138.844L198.09 137.787C203.651 128.658 217.597 103.378 201.209 69.3974" fill="#34C26B"/>
<path fill-rule="evenodd" clip-rule="evenodd" d="M118.716 134.907C117.661 132.185 114.79 128.886 107.565 134.469C100.341 140.052 107.17 146.714 112.082 146.138C116.995 145.562 119.768 137.629 118.716 134.907Z" fill="#34C26B"/>
<path d="M89.8174 52.4376C80.0254 62.8327 73.7352 76.4195 71.9922 91.542C72.0143 91.4918 72.0363 91.4415 72.0596 91.3913C72.7926 85.6783 74.2279 80.186 76.2785 75.0026C76.2552 75.016 76.2307 75.0308 76.2074 75.0455C76.5334 74.2745 76.868 73.5133 77.21 72.7644C78.7789 69.1744 80.6481 65.7461 82.7832 62.5091C84.7713 58.8994 87.1332 55.5251 89.8174 52.4376ZM140.041 31.6572C134.703 31.6572 129.587 32.1843 124.726 33.1844C125.527 33.0631 126.333 32.9577 127.145 32.8682C131.322 32.0727 135.634 31.6572 140.041 31.6572C172.55 31.6572 199.773 54.2908 206.815 84.6573C213.444 110.885 202.781 130.085 198.089 137.789L197.439 138.845C188.247 151.279 176.974 159.91 163.619 164.74C163.607 164.691 163.594 164.643 163.582 164.594C156.24 167.28 148.312 168.745 140.041 168.745C177.897 168.745 208.969 139.644 208.969 101.789C208.969 63.9334 180.783 31.6585 140.041 31.6585" fill="#013CB9"/>
<path d="M189.101 106.381C182.159 130.548 159.89 148.228 133.491 148.228C126.893 148.228 120.557 147.125 114.65 145.09C113.88 145.649 113.02 146.028 112.081 146.137C111.88 146.16 111.678 146.172 111.472 146.172C108.419 146.172 104.902 143.643 104.467 140.431C101.974 138.982 99.6021 137.355 97.3628 135.563C97.1557 135.723 96.9461 135.884 96.7328 136.043C89.5196 141.411 88.5403 144.226 87.7399 144.226C87.1945 144.226 86.7324 142.914 84.4293 140.208C84.308 140.065 84.1829 139.913 84.053 139.752C96.4668 157.292 116.916 168.742 140.039 168.742C148.311 168.742 156.239 167.277 163.58 164.592C160.797 153.62 162.469 145.037 168.595 138.843C177.825 129.512 186.299 133.376 191.648 125.556C196.997 117.736 196.997 108.482 189.605 106.516C189.435 106.471 189.266 106.426 189.098 106.38M77.9748 74.0416C77.4306 74.3309 76.8643 74.6508 76.2748 75.0026C74.2242 80.186 72.7889 85.6783 72.056 91.3913C73.3025 88.6078 74.6005 86.5143 75.8911 84.9196C76.2417 81.1788 76.9465 77.541 77.9748 74.0416ZM82.7795 62.5079C80.6444 65.7449 78.7764 69.1744 77.2063 72.7632C78.812 69.248 80.588 65.9778 82.5381 62.9504C82.6177 62.8021 82.6986 62.6537 82.7795 62.5067M140.039 31.6548C135.63 31.6548 131.318 32.0715 127.142 32.8658C127.226 32.8572 127.308 32.8474 127.391 32.8388C129.157 32.5128 130.993 32.2492 132.898 32.0629C132.914 32.2186 132.927 32.3718 132.94 32.5238C133.122 32.5226 133.306 32.5214 133.49 32.5214C157.306 32.5214 177.763 46.9146 186.634 67.4768C188.288 66.8701 190.045 66.5747 191.822 66.5747C195.044 66.5747 198.334 67.5455 201.205 69.395C203.764 74.7023 205.584 79.7999 206.811 84.6537C199.769 54.2859 172.547 31.6536 140.038 31.6536" fill="#178FEC"/>
<path d="M132.9 32.0664C130.996 32.2527 129.16 32.5162 127.393 32.8423C129.22 32.6511 131.071 32.5444 132.943 32.5273C132.931 32.3753 132.918 32.2221 132.902 32.0664" fill="#2DAC6D"/>
<path d="M75.8936 84.9207C74.6029 86.5141 73.3049 88.6088 72.0584 91.3923C72.0363 91.4426 72.0143 91.4916 71.991 91.5431C71.6637 94.3781 71.497 97.2683 71.497 100.201C71.497 114.933 76.1449 128.58 84.0542 139.754C84.1829 139.915 84.308 140.067 84.4305 140.21C86.7336 142.918 87.1945 144.228 87.7411 144.228C88.5415 144.228 89.5208 141.412 96.734 136.045C96.9473 135.886 97.1581 135.726 97.364 135.565C84.1217 124.963 75.6399 108.661 75.6399 90.3787C75.6399 88.5389 75.7257 86.7188 75.8936 84.9231M82.5405 62.9551C80.5917 65.9825 78.8144 69.2527 77.2088 72.768C76.8668 73.5169 76.5322 74.278 76.2061 75.049C76.2294 75.0343 76.2539 75.0208 76.2772 75.0061C76.8668 74.6543 77.4331 74.3344 77.9773 74.0451C79.1172 70.1634 80.6542 66.4507 82.5405 62.9551Z" fill="#73E093"/>
<path d="M191.824 66.5771C190.047 66.5771 188.291 66.8725 186.636 67.4793C189.666 74.5012 191.344 82.2427 191.344 90.3764C191.344 95.9288 190.562 101.299 189.101 106.381C189.269 106.427 189.438 106.473 189.607 106.518C196.999 108.485 196.999 117.737 191.65 125.557C186.301 133.377 177.827 129.513 168.598 138.844C162.472 145.039 160.8 153.621 163.582 164.593C163.594 164.642 163.607 164.69 163.619 164.739C176.973 159.91 188.247 151.279 197.439 138.844L198.089 137.787C202.781 130.084 213.444 110.883 206.815 84.6561C205.588 79.8011 203.767 74.7047 201.208 69.3975C198.336 67.5479 195.047 66.5771 191.826 66.5771" fill="#2DAC6D"/>
<path d="M104.468 140.432C104.904 143.644 108.421 146.174 111.473 146.174C111.679 146.174 111.882 146.162 112.082 146.138C113.02 146.028 113.88 145.65 114.651 145.091C111.088 143.864 107.678 142.298 104.468 140.432Z" fill="#2DAC6D"/>
<path d="M128.054 111.202C132.126 114.12 136.456 115.602 140.991 115.602C145.526 115.602 149.787 114.104 153.636 111.152C154.775 110.278 155.013 108.615 154.17 107.436C153.325 106.256 151.719 106.009 150.579 106.883C147.6 109.167 144.428 110.288 140.991 110.288C137.554 110.288 134.213 109.151 130.979 106.832C129.813 105.997 128.213 106.297 127.407 107.504C126.599 108.71 126.89 110.366 128.055 111.201L128.054 111.202Z" fill="#1C43B5"/>
<path fill-rule="evenodd" clip-rule="evenodd" d="M109.487 110.905C105.584 111.307 101.382 106.646 104.787 103.294C108.191 99.9416 115.317 102.216 115.8 105.086C116.283 107.955 113.392 110.503 109.487 110.905Z" fill="#155BEF"/>
<path fill-rule="evenodd" clip-rule="evenodd" d="M171.761 110.905C175.665 111.307 179.866 106.646 176.462 103.294C173.058 99.9416 165.932 102.216 165.449 105.086C164.966 107.955 167.856 110.503 171.761 110.905Z" fill="#155BEF"/>
<path d="M117.707 100.2C121.96 100.2 125.409 96.7523 125.409 92.4991C125.409 88.246 121.961 84.7981 117.707 84.7981C113.452 84.7981 110.006 88.246 110.006 92.4991C110.006 96.7523 113.454 100.2 117.707 100.2Z" fill="#1C43B5"/>
<path d="M163.915 100.2C168.169 100.2 171.616 96.7523 171.616 92.4991C171.616 88.246 168.169 84.7981 163.915 84.7981C159.662 84.7981 156.213 88.246 156.213 92.4991C156.213 96.7523 159.661 100.2 163.915 100.2Z" fill="#1C43B5"/>
<path fill-rule="evenodd" clip-rule="evenodd" d="M217.717 144.412C218.555 144.412 219.254 144.412 220.092 144.696C221.35 139.864 225.68 136.309 230.849 136.309C236.018 136.309 240.348 139.864 241.746 144.696C242.444 144.412 243.143 144.412 243.981 144.412C249.29 144.412 253.62 148.818 253.62 154.22C253.62 159.622 249.29 164.029 243.981 164.029H217.717C212.409 164.029 208.078 159.623 208.078 154.22C208.078 148.817 212.409 144.412 217.717 144.412Z" fill="white"/>
<path fill-rule="evenodd" clip-rule="evenodd" d="M13.0548 123.861C14.1898 123.861 15.1361 123.861 16.271 124.242C17.9735 117.758 23.8385 112.99 30.8396 112.99C37.8408 112.99 43.7057 117.758 45.5969 124.242C46.5432 123.861 47.4894 123.861 48.6244 123.861C55.8143 123.861 61.6792 129.774 61.6792 137.02C61.6792 144.266 55.8143 150.179 48.6244 150.179C36.7683 150.179 24.9109 150.179 13.0536 150.179C5.86493 150.179 0 144.266 0 137.02C0 129.774 5.86493 123.861 13.0548 123.861Z" fill="white"/>
<path fill-rule="evenodd" clip-rule="evenodd" d="M201.763 26.3229C202.612 26.3229 203.319 26.3229 204.168 26.6072C205.441 21.7596 209.825 18.1965 215.059 18.1965C220.292 18.1965 224.675 21.7596 226.09 26.6072C226.797 26.3229 227.504 26.3229 228.352 26.3229C233.727 26.3229 238.111 30.7427 238.111 36.159C238.111 41.5754 233.679 46.0442 228.264 45.9952C219.459 45.9952 210.658 45.9952 201.853 45.9952C196.439 46.0442 192.006 41.606 192.006 36.159C192.006 30.7121 196.39 26.3229 201.765 26.3229H201.763Z" fill="white"/>
</svg>
