<svg width="282" height="282" viewBox="0 0 282 282" fill="none" xmlns="http://www.w3.org/2000/svg">
<path d="M141.473 241.958C197.38 241.958 242.701 196.749 242.701 140.979C242.701 85.2084 197.38 40 141.473 40C85.5652 40 40.2441 85.2096 40.2441 140.98C40.2441 196.75 85.5652 241.96 141.473 241.96" fill="#0A6EFA"/>
<path d="M141.473 228.946C190.176 228.946 229.658 189.563 229.658 140.979C229.658 92.3946 190.176 53.012 141.473 53.012C92.7701 53.012 53.2881 92.3959 53.2881 140.98C53.2881 189.564 92.7701 228.948 141.473 228.948" fill="#003FC4"/>
<path d="M141.041 208.743C178.897 208.743 209.584 178.056 209.584 140.2C209.584 102.345 178.897 71.6572 141.041 71.6572C103.186 71.6572 72.4985 102.345 72.4985 140.2C72.4985 178.056 103.186 208.743 141.041 208.743Z" fill="#1AA0FF"/>
<path fill-rule="evenodd" clip-rule="evenodd" d="M107.243 88.2578C103.931 91.0916 98.7577 92.3737 96.7439 90.4297C94.73 88.4845 97.0969 87.9526 99.1634 85.9449C101.475 84.506 113.929 74.0153 133.9 72.0652C135.849 91.2019 110.555 85.4228 107.244 88.2578" fill="#34C26B"/>
<path fill-rule="evenodd" clip-rule="evenodd" d="M77.206 115.045C80.4958 107.276 84.5774 100.63 89.4519 95.1083C93.1535 95.237 93.8607 97.3427 91.5736 101.426C91.2623 103.861 92.5149 104.515 95.3316 103.392C99.5553 101.705 102.997 91.7964 111.361 95.7983C115.554 97.8048 120.51 95.6096 126.095 93.4131C131.649 91.2289 137.828 89.046 144.501 90.9936C157.887 94.9011 153.627 104.979 150.111 104.856C143.436 104.623 140.97 108.411 138.639 112.198C135.694 116.984 132.963 121.77 122.229 118.444C103.001 112.489 101.243 137.577 106.11 145.766C110.978 153.954 109.87 167.013 97.7339 176.043C85.5984 185.073 91.1078 186.882 85.4317 180.208C82.8822 177.211 78.672 170.266 76.1826 163.075C73.1784 154.394 71.297 143.316 72.8683 131.825C80.2065 114.956 89.4201 122.476 88.6001 115.601C88.0534 111.017 84.2562 110.831 77.2073 115.045" fill="#85FF97"/>
<path fill-rule="evenodd" clip-rule="evenodd" d="M202.208 109.397C192.474 103.128 177.931 106.956 177.525 124.467C177.12 141.979 183.216 144.55 190.608 146.517C198 148.485 198 157.737 192.652 165.557C187.303 173.377 178.828 169.513 169.599 178.844C163.446 185.065 161.786 193.697 164.62 204.739C177.974 199.91 189.248 191.278 198.44 178.844L199.09 177.787C204.651 168.658 218.597 143.378 202.209 109.397" fill="#34C26B"/>
<path fill-rule="evenodd" clip-rule="evenodd" d="M119.716 174.907C118.661 172.185 115.79 168.886 108.565 174.469C101.341 180.052 108.17 186.714 113.082 186.138C117.995 185.562 120.768 177.629 119.716 174.907Z" fill="#34C26B"/>
<path d="M90.8174 92.4376C81.0254 102.833 74.7352 116.42 72.9922 131.542C73.0143 131.492 73.0363 131.442 73.0596 131.391C73.7926 125.678 75.2279 120.186 77.2785 115.003C77.2552 115.016 77.2307 115.031 77.2074 115.046C77.5334 114.275 77.868 113.513 78.21 112.764C79.7789 109.174 81.6481 105.746 83.7832 102.509C85.7713 98.8994 88.1332 95.5251 90.8174 92.4376ZM141.041 71.6572C135.703 71.6572 130.587 72.1843 125.726 73.1844C126.527 73.0631 127.333 72.9577 128.145 72.8682C132.322 72.0727 136.634 71.6572 141.041 71.6572C173.55 71.6572 200.773 94.2908 207.815 124.657C214.444 150.885 203.781 170.085 199.089 177.789L198.439 178.845C189.247 191.279 177.974 199.91 164.619 204.74C164.607 204.691 164.594 204.643 164.582 204.594C157.24 207.28 149.312 208.745 141.041 208.745C178.897 208.745 209.969 179.644 209.969 141.789C209.969 103.933 181.783 71.6585 141.041 71.6585" fill="#013CB9"/>
<path d="M190.101 146.381C183.159 170.548 160.89 188.228 134.491 188.228C127.893 188.228 121.557 187.125 115.65 185.09C114.88 185.649 114.02 186.028 113.081 186.137C112.88 186.16 112.678 186.172 112.472 186.172C109.419 186.172 105.902 183.643 105.467 180.431C102.974 178.982 100.602 177.355 98.363 175.563C98.1559 175.723 97.9463 175.884 97.733 176.043C90.5198 181.411 89.5405 184.226 88.7401 184.226C88.1947 184.226 87.7326 182.914 85.4295 180.208C85.3082 180.065 85.1831 179.913 85.0532 179.752C97.467 197.292 117.916 208.742 141.039 208.742C149.311 208.742 157.239 207.277 164.58 204.592C161.797 193.62 163.469 185.037 169.595 178.843C178.825 169.512 187.299 173.376 192.648 165.556C197.997 157.736 197.997 148.482 190.605 146.516C190.435 146.471 190.266 146.426 190.098 146.38M78.975 114.042C78.4308 114.331 77.8645 114.651 77.275 115.003C75.2244 120.186 73.7891 125.678 73.0562 131.391C74.3027 128.608 75.6007 126.514 76.8913 124.92C77.2419 121.179 77.9467 117.541 78.975 114.042ZM83.7797 102.508C81.6446 105.745 79.7766 109.174 78.2065 112.763C79.8122 109.248 81.5882 105.978 83.5383 102.95C83.6179 102.802 83.6988 102.654 83.7797 102.507M141.039 71.6548C136.63 71.6548 132.318 72.0715 128.142 72.8658C128.226 72.8572 128.308 72.8474 128.391 72.8388C130.157 72.5128 131.993 72.2492 133.898 72.0629C133.914 72.2186 133.927 72.3718 133.94 72.5238C134.122 72.5226 134.306 72.5214 134.49 72.5214C158.306 72.5214 178.763 86.9146 187.634 107.477C189.288 106.87 191.045 106.575 192.822 106.575C196.044 106.575 199.334 107.545 202.205 109.395C204.764 114.702 206.584 119.8 207.811 124.654C200.769 94.2859 173.547 71.6536 141.038 71.6536" fill="#178FEC"/>
<path d="M133.9 72.0664C131.996 72.2527 130.16 72.5162 128.393 72.8423C130.22 72.6511 132.071 72.5444 133.943 72.5273C133.931 72.3753 133.918 72.2221 133.902 72.0664" fill="#2DAC6D"/>
<path d="M76.8937 124.921C75.603 126.514 74.305 128.609 73.0585 131.392C73.0364 131.443 73.0144 131.492 72.9911 131.543C72.6638 134.378 72.4971 137.268 72.4971 140.201C72.4971 154.933 77.145 168.58 85.0543 179.754C85.183 179.915 85.3081 180.067 85.4306 180.21C87.7337 182.918 88.1946 184.228 88.7412 184.228C89.5416 184.228 90.5209 181.412 97.7341 176.045C97.9474 175.886 98.1582 175.726 98.3641 175.565C85.1218 164.963 76.64 148.661 76.64 130.379C76.64 128.539 76.7258 126.719 76.8937 124.923M83.5406 102.955C81.5918 105.982 79.8145 109.253 78.2089 112.768C77.8669 113.517 77.5323 114.278 77.2062 115.049C77.2295 115.034 77.254 115.021 77.2773 115.006C77.8669 114.654 78.4332 114.334 78.9774 114.045C80.1173 110.163 81.6543 106.451 83.5406 102.955Z" fill="#73E093"/>
<path d="M192.824 106.577C191.047 106.577 189.291 106.873 187.636 107.479C190.666 114.501 192.344 122.243 192.344 130.376C192.344 135.929 191.562 141.299 190.101 146.381C190.269 146.427 190.438 146.473 190.607 146.518C197.999 148.485 197.999 157.737 192.65 165.557C187.301 173.377 178.827 169.513 169.598 178.844C163.472 185.039 161.8 193.621 164.582 204.593C164.594 204.642 164.607 204.69 164.619 204.739C177.973 199.91 189.247 191.279 198.439 178.844L199.089 177.787C203.781 170.084 214.444 150.883 207.815 124.656C206.588 119.801 204.767 114.705 202.208 109.398C199.336 107.548 196.047 106.577 192.826 106.577" fill="#2DAC6D"/>
<path d="M105.468 180.432C105.904 183.644 109.421 186.174 112.473 186.174C112.679 186.174 112.882 186.162 113.082 186.138C114.02 186.028 114.88 185.65 115.651 185.091C112.088 183.864 108.678 182.298 105.468 180.432Z" fill="#2DAC6D"/>
<path d="M129.054 151.202C133.126 154.12 137.456 155.602 141.991 155.602C146.526 155.602 150.787 154.104 154.636 151.152C155.775 150.278 156.013 148.615 155.17 147.436C154.325 146.256 152.719 146.009 151.579 146.883C148.6 149.167 145.428 150.288 141.991 150.288C138.554 150.288 135.213 149.151 131.979 146.832C130.813 145.997 129.213 146.297 128.407 147.504C127.599 148.71 127.89 150.366 129.055 151.201L129.054 151.202Z" fill="#1C43B5"/>
<path fill-rule="evenodd" clip-rule="evenodd" d="M110.487 150.905C106.584 151.307 102.382 146.646 105.787 143.294C109.191 139.942 116.317 142.216 116.8 145.086C117.283 147.955 114.392 150.503 110.487 150.905Z" fill="#155BEF"/>
<path fill-rule="evenodd" clip-rule="evenodd" d="M172.761 150.905C176.665 151.307 180.866 146.646 177.462 143.294C174.058 139.942 166.932 142.216 166.449 145.086C165.966 147.955 168.856 150.503 172.761 150.905Z" fill="#155BEF"/>
<path d="M118.707 140.2C122.96 140.2 126.409 136.752 126.409 132.499C126.409 128.246 122.961 124.798 118.707 124.798C114.452 124.798 111.006 128.246 111.006 132.499C111.006 136.752 114.454 140.2 118.707 140.2Z" fill="#1C43B5"/>
<path d="M164.915 140.2C169.169 140.2 172.616 136.752 172.616 132.499C172.616 128.246 169.169 124.798 164.915 124.798C160.662 124.798 157.213 128.246 157.213 132.499C157.213 136.752 160.661 140.2 164.915 140.2Z" fill="#1C43B5"/>
<path fill-rule="evenodd" clip-rule="evenodd" d="M218.717 184.412C219.555 184.412 220.254 184.412 221.092 184.696C222.35 179.864 226.68 176.309 231.849 176.309C237.018 176.309 241.348 179.864 242.746 184.696C243.444 184.412 244.143 184.412 244.981 184.412C250.29 184.412 254.62 188.818 254.62 194.22C254.62 199.622 250.29 204.029 244.981 204.029H218.717C213.409 204.029 209.078 199.623 209.078 194.22C209.078 188.817 213.409 184.412 218.717 184.412Z" fill="white"/>
<path fill-rule="evenodd" clip-rule="evenodd" d="M14.0548 163.861C15.1898 163.861 16.1361 163.861 17.271 164.242C18.9735 157.758 24.8385 152.99 31.8396 152.99C38.8408 152.99 44.7057 157.758 46.5969 164.242C47.5432 163.861 48.4894 163.861 49.6244 163.861C56.8143 163.861 62.6792 169.774 62.6792 177.02C62.6792 184.266 56.8143 190.179 49.6244 190.179C37.7683 190.179 25.9109 190.179 14.0536 190.179C6.86493 190.179 1 184.266 1 177.02C1 169.774 6.86493 163.861 14.0548 163.861Z" fill="white"/>
<path fill-rule="evenodd" clip-rule="evenodd" d="M202.763 66.3229C203.612 66.3229 204.319 66.3229 205.168 66.6072C206.441 61.7596 210.825 58.1965 216.059 58.1965C221.292 58.1965 225.675 61.7596 227.09 66.6072C227.797 66.3229 228.504 66.3229 229.352 66.3229C234.727 66.3229 239.111 70.7427 239.111 76.159C239.111 81.5754 234.679 86.0442 229.264 85.9952C220.459 85.9952 211.658 85.9952 202.853 85.9952C197.439 86.0442 193.006 81.606 193.006 76.159C193.006 70.7121 197.39 66.3229 202.765 66.3229H202.763Z" fill="white"/>
</svg>
